<?xml version="1.0" encoding="UTF-8"?>
<svg version="1.1" xmlns="http://www.w3.org/2000/svg" width="512" height="512">
    <path
        d="M0 0 C147.18 0 294.36 0 446 0 C446 25.74 446 51.48 446 78 C456.89 78 467.78 78 479 78 C479 114.96 479 151.92 479 190 C468.11 190 457.22 190 446 190 C446 200.89 446 211.78 446 223 C298.82 223 151.64 223 0 223 C0 212.11 0 201.22 0 190 C-10.89 190 -21.78 190 -33 190 C-33 153.04 -33 116.08 -33 78 C-22.11 78 -11.22 78 0 78 C0 52.26 0 26.52 0 0 Z M101 45 C101 59.52 101 74.04 101 89 C115.52 89 130.04 89 145 89 C145 74.48 145 59.96 145 45 C130.48 45 115.96 45 101 45 Z M201 45 C201 59.52 201 74.04 201 89 C215.52 89 230.04 89 245 89 C245 74.48 245 59.96 245 45 C230.48 45 215.96 45 201 45 Z M301 45 C301 59.52 301 74.04 301 89 C315.52 89 330.04 89 345 89 C345 74.48 345 59.96 345 45 C330.48 45 315.96 45 301 45 Z M101 123 C101 137.52 101 152.04 101 167 C115.52 167 130.04 167 145 167 C145 152.48 145 137.96 145 123 C130.48 123 115.96 123 101 123 Z M201 123 C201 137.52 201 152.04 201 167 C215.52 167 230.04 167 245 167 C245 152.48 245 137.96 245 123 C230.48 123 215.96 123 201 123 Z M301 123 C301 137.52 301 152.04 301 167 C315.52 167 330.04 167 345 167 C345 152.48 345 137.96 345 123 C330.48 123 315.96 123 301 123 Z "
        fill="#000000" transform="translate(33,267)" />
    <path
        d="M0 0 C81.18 0 162.36 0 246 0 C246 10.89 246 21.78 246 33 C268.11 33 290.22 33 313 33 C313 44.22 313 55.44 313 67 C323.89 67 334.78 67 346 67 C346 77.89 346 88.78 346 100 C356.89 100 367.78 100 379 100 C379 126.07 379 152.14 379 179 C368.11 179 357.22 179 346 179 C346 189.89 346 200.78 346 212 C312.67 212 279.34 212 245 212 C245 201.11 245 190.22 245 179 C234.11 179 223.22 179 212 179 C212 153.26 212 127.52 212 101 C153.26 101 94.52 101 34 101 C34 126.74 34 152.48 34 179 C23.11 179 12.22 179 1 179 C1 189.89 1 200.78 1 212 C-32.33 212 -65.66 212 -100 212 C-100 201.11 -100 190.22 -100 179 C-110.89 179 -121.78 179 -133 179 C-133 152.93 -133 126.86 -133 100 C-122.11 100 -111.22 100 -100 100 C-100 89.11 -100 78.22 -100 67 C-89.11 67 -78.22 67 -67 67 C-67 55.78 -67 44.56 -67 33 C-44.89 33 -22.78 33 0 33 C0 22.11 0 11.22 0 0 Z "
        fill="#000000" transform="translate(133,22)" />
    <path d="M0 0 C36.96 0 73.92 0 112 0 C112 26.07 112 52.14 112 79 C75.04 79 38.08 79 0 79 C0 52.93 0 26.86 0 0 Z "
        fill="#000000" transform="translate(200,155)" />
</svg>